# xmcd
#
# Track frame offsets:
#	150
#	17378
#	39118
#	59253
#	84319
#	104809
#	123330
#	141349
#	153930
#	173875
#	190681
#	212973
#	231739
#	252378
#	272127
#	290029
#	310280
#	332321
#
# Disc length: 4685 seconds
#
# Revision: 1
# Processed by: cddbd v1.5.2PL0 Copyright (c) Steve Scherf et al.
# Submitted via: audiograbber 1.83.01
#
DISCID=05124b12
DTITLE=Dave Alvin - The Best Of the Hightone Years
DYEAR=2008
DGENRE=Country
TTITLE0=Dry River
TTITLE1=King Of California
TTITLE2=Haley's Comet
TTITLE3=Evening Blues
TTITLE4=Fourth Of July
TTITLE5=The Cuckoo
TTITLE6=California Snow
TTITLE7=Dixie Highway Blues
TTITLE8=Thirty Dollar Room
TTITLE9=Blue Wing
TTITLE10=Abilene
TTITLE11=Shenandoah
TTITLE12=Out In California
TTITLE13=Every Night About This Time
TTITLE14=Wanda And Duane
TTITLE15=Mary Brown
TTITLE16=Why Did She Stay With Him
TTITLE17=Museum Of Heart
EXTD=
EXTT0=
EXTT1=
EXTT2=
EXTT3=
EXTT4=
EXTT5=
EXTT6=
EXTT7=
EXTT8=
EXTT9=
EXTT10=
EXTT11=
EXTT12=
EXTT13=
EXTT14=
EXTT15=
EXTT16=
EXTT17=
PLAYORDER=
